<svg xmlns="http://www.w3.org/2000/svg" width="275.707" height="211.779" viewBox="0 0 275.707 211.779"><defs><style>.a,.m{fill:#f6f5fa;}.a,.b,.c,.g,.h,.i,.j,.k,.l,.n{fill-rule:evenodd;}.b,.f{fill:#95e857;}.c,.d{fill:#adbef8;}.e,.g{fill:#efcbd5;}.h{fill:#b0efff;}.i{fill:#e2e2ed;}.j{fill:#9999b6;}.k{fill:#8484a5;}.l{fill:#fff;}.n{fill:#ffd428;}</style></defs><g transform="translate(-0.5)"><g transform="translate(0.5)"><g transform="translate(0)"><path class="a" d="M126.708,70.028c11.4,24.489,65.3-12.938,96.879-13.015,30.5-.077,64.92,20.1,52.675,61.454-6.315,21.178-57.373,59.683-84.634,25.876-26.492-32.806-47.978,9.241-72.929,18.02C77.114,177,25.594,129.326,20.9,105.53c-7.008-35.425,7.547-53.06,48.363-64C87.356,36.759,112.307,39.224,126.708,70.028Z" transform="translate(-4.801 -9.113)"/><path class="b" d="M145.873,189.746a23.873,23.873,0,1,1,23.873-23.873A23.873,23.873,0,0,1,145.873,189.746Zm-3-19.865-3.707-3.669a1.925,1.925,0,0,0-2.709,0l-.822.814-.014.014a1.925,1.925,0,0,0,.014,2.723l5.093,5.041a1.926,1.926,0,0,0,2.069.42,1.926,1.926,0,0,0,2.175-.374l12.923-12.79a1.925,1.925,0,0,0,.014-2.723l-.014-.014-.822-.814a1.925,1.925,0,0,0-2.709,0Z" transform="translate(-28.432 -32.645)"/><path class="c" d="M353.777,196.269a4.168,4.168,0,0,1-3.851,7.393,4.117,4.117,0,0,1-1.771-5.622h0A4.275,4.275,0,0,1,353.777,196.269Z" transform="translate(-80.312 -45.021)"/><circle class="d" cx="2.618" cy="2.618" r="2.618" transform="translate(26.261 77.396)"/><circle class="e" cx="2.849" cy="2.849" r="2.849" transform="translate(224.255 103.579)"/><circle class="f" cx="3.388" cy="3.388" r="3.388" transform="translate(79.86 31.959)"/><path class="c" d="M117.1,0l8.7,4.621-8.163,4.7Z" transform="translate(-27.306)"/><path class="g" d="M12.514,72.242.5,57.764,18.366,55.3Z" transform="translate(-0.5 -12.713)"/><path class="h" d="M312.1,231.68,293,229.755,304.32,215.2Z" transform="translate(-67.744 -49.473)"/><path class="i" d="M162.923,245.4c48.671,0,88.023,5.083,88.023,11.4s-39.429,11.4-88.023,11.4S74.9,263.112,74.9,256.8,114.252,245.4,162.923,245.4Z" transform="translate(-17.604 -56.416)"/><g transform="translate(31.189 83.171)"><path class="j" d="M13,100.114V9.177C13,3.671,17.5,0,22.995,0H156.256c5.5,0,9.995,3.671,9.995,9.177v90.937ZM21.471,8.471V91.642H157.78V8.471Z" transform="translate(-2.989 0)"/><path class="k" d="M0,132.475v1.65c0,3.631,3,7.426,6.664,7.426H166.609c3.665,0,6.664-3.8,6.664-7.426v-1.65c0-1.815-1.5-2.475-3.332-2.475H3.332C1.5,130,0,130.66,0,132.475Z" transform="translate(0 -29.886)"/><path class="k" d="M125.621,134.621H85.355c-1.845,0-3.355-2.156-3.355-3.851V130h46.976v.77C128.976,132.464,127.466,134.621,125.621,134.621Z" transform="translate(-18.851 -29.886)"/></g><path class="l" d="M105.222,82.387a4.544,4.544,0,1,1,0-9.087,4.5,4.5,0,0,1,4.544,4.544A4.6,4.6,0,0,1,105.222,82.387ZM103.3,85.314a1.848,1.848,0,1,1-1.848-1.848h0A1.824,1.824,0,0,1,103.3,85.314Z" transform="translate(-23.283 -16.851)"/><g transform="translate(173.659 69.309)"><g transform="translate(0 0)"><path class="k" d="M4.071,75.47v.041H45.985V75.47h.221V7.7H3.08V75.47ZM27.893,80.5a2.869,2.869,0,1,0-5.73,0,2.865,2.865,0,1,0,5.73,0ZM18.244,4.844a.693.693,0,0,0,.6.756H31.214a.692.692,0,0,0,.6-.756c0-.3-.3-.756-.6-.756H18.847C18.545,4.088,18.244,4.543,18.244,4.844Zm31.813.906V80.5a5.866,5.866,0,0,1-5.881,5.75H5.881A5.864,5.864,0,0,1,0,80.5V5.75A5.87,5.87,0,0,1,5.881,0H44.175A5.871,5.871,0,0,1,50.057,5.75Z" transform="translate(0 0)"/><rect class="m" width="43.896" height="67.769" transform="translate(3.08 7.701)"/><path class="b" d="M30.626,63.253a9.626,9.626,0,1,1,9.626-9.626A9.626,9.626,0,0,1,30.626,63.253Zm-.971-7.943L28.08,53.494a.788.788,0,0,0-1.192,0,1.055,1.055,0,0,0,0,1.38L28.558,56.8a.788.788,0,0,0,.845.231.676.676,0,0,0,.9-.107l4.727-5.4a.907.907,0,0,0,.008-1.185.676.676,0,0,0-1.023-.007Z" transform="translate(-4.828 -10.115)"/></g><path class="b" d="M95.9,26.4l16.172,2.7L101.6,40.878Z" transform="translate(-22.047 -6.069)"/><path class="l" d="M23.616,6.54H36.25a.705.705,0,0,0,.612-.77c0-.306-.306-.77-.612-.77H23.616c-.308,0-.616.464-.616.77A.707.707,0,0,0,23.616,6.54Z" transform="translate(-5.288 -1.149)"/></g><path class="n" d="M301.1,95.932a5.754,5.754,0,0,1-1.925,1.925,5.439,5.439,0,0,1-5.314,0,5.754,5.754,0,0,1-1.925-1.925,5.439,5.439,0,0,1,0-5.314,5.754,5.754,0,0,1,1.925-1.925,5.439,5.439,0,0,1,5.314,0,5.754,5.754,0,0,1,1.925,1.925A5.438,5.438,0,0,1,301.1,95.932ZM211.535,209.292a8.973,8.973,0,0,1-9.01,0,9.513,9.513,0,0,1-3.311-3.234,8.831,8.831,0,0,1,0-8.933,8.361,8.361,0,0,1,3.311-3.234,8.973,8.973,0,0,1,9.01,0,9.513,9.513,0,0,1,3.311,3.234,8.831,8.831,0,0,1,0,8.933A11.054,11.054,0,0,1,211.535,209.292Z" transform="translate(-45.904 -20.231)"/></g></g></g></svg>