<svg xmlns="http://www.w3.org/2000/svg" width="305.943" height="164.257" viewBox="0 0 305.943 164.257"><defs><style>.a{fill:#f6f5fa;}.a,.c,.e,.f,.h,.i,.j,.l{fill-rule:evenodd;}.b,.c{fill:#adbef8;}.d,.f{fill:#efcbd5;}.e{fill:#95e857;}.g{fill:#b0efff;}.h{fill:#e2e2ed;}.i{fill:#ff899d;}.j{fill:#fff;}.k{fill:#f04561;}.l{fill:#fafff7;}</style></defs><g transform="translate(-0.446 -0.039)"><g transform="translate(0.446 0.039)"><g transform="translate(0 0)"><g transform="translate(0 0)"><path class="a" d="M129.69,59.136c21.085,18.173,56.031-39.446,85.684-52.762,28.729-12.9,69.555-8.459,75.436,35.509,3.024,22.528-28.9,79.98-68.715,59.713-38.726-19.681-41.246,28.809-61.071,47.485-32.93,31.154-101.477,8.04-115.926-12.311-21.421-30.317-15.2-52.929,18.649-80.231C78.7,44.4,103.229,36.273,129.69,59.136Z" transform="translate(-8.388 -0.039)"/><ellipse class="b" cx="4.284" cy="4.271" rx="4.284" ry="4.271" transform="translate(297.374 80.285)"/><path class="c" d="M55.263,150.408a2.685,2.685,0,1,1-2.856,2.512,2.706,2.706,0,0,1,2.856-2.512Z" transform="translate(-13.261 -37.126)"/><ellipse class="d" cx="2.94" cy="2.931" rx="2.94" ry="2.931" transform="translate(236.556 54.658)"/><path class="e" d="M98.03,63.476a3.482,3.482,0,1,1-3.7,3.266,3.54,3.54,0,0,1,3.7-3.266Z" transform="translate(-23.602 -15.685)"/><path class="e" d="M331.064,32.952l16.381-4.271-4.872,15.41Z" transform="translate(-81.992 -7.104)"/><path class="c" d="M87.421,20.455l10.08.67L91.79,28.913Z" transform="translate(-21.898 -5.075)"/><path class="f" d="M17.835,131.843.446,123.3l15.793-9.8Z" transform="translate(-0.446 -28.024)"/><ellipse class="g" cx="9.408" cy="9.38" rx="9.408" ry="9.38" transform="translate(268.729 109.095)"/></g><path class="h" d="M185.515,181c32.868,0,59.515,5.246,59.515,11.677s-26.647,11.677-59.515,11.677S126,199.108,126,192.677,152.647,181,185.515,181Z" transform="translate(-31.413 -44.673)"/><path class="i" d="M188.631,142.762l-12.443,20.753-12.443-20.753H101.8A14.814,14.814,0,0,1,87,127.975v-9.187A14.8,14.8,0,0,1,101.713,104h141.5a14.814,14.814,0,0,1,14.8,14.787v9.187A14.689,14.689,0,0,1,243.3,142.762Z" transform="translate(-21.794 -25.681)"/><path class="j" d="M125.544,124.981l-3.855,2.138,3.855,2.17-1,1.782-3.92-2.3.032,4.406h-1.944l.032-4.406-3.92,2.3-1-1.782,3.887-2.17-3.887-2.138,1-1.814,3.92,2.3-.032-4.373h1.944l-.032,4.373,3.92-2.3Zm30.386,0-3.855,2.138,3.855,2.17-1,1.782-3.92-2.3.032,4.406h-1.944l.032-4.406-3.92,2.3-1-1.782,3.887-2.17-3.887-2.138,1-1.814,3.92,2.3-.032-4.373h1.944l-.032,4.373,3.92-2.3Zm30.386,0-3.855,2.138,3.855,2.17-1,1.782-3.92-2.3.032,4.406H179.48l.032-4.406-3.92,2.3-1-1.782,3.887-2.17-3.887-2.138,1-1.814,3.92,2.3-.032-4.373h1.944l-.032,4.373,3.92-2.3Zm30.386,0-3.855,2.138,3.855,2.17-1,1.782-3.92-2.3.032,4.406h-1.944l.032-4.406-3.92,2.3-1-1.782,3.887-2.17-3.887-2.138,1-1.814,3.92,2.3-.032-4.373h1.944l-.032,4.373,3.92-2.3Zm30.386,0-3.855,2.138,3.855,2.17-1,1.782-3.92-2.3.032,4.406h-1.944l.032-4.406-3.92,2.3-1-1.782,3.887-2.17-3.887-2.138,1-1.814,3.92,2.3-.032-4.373H242.2l-.032,4.373,3.92-2.3Z" transform="translate(-28.409 -29.897)"/><g transform="translate(223.109 70.108)"><circle class="k" cx="11.526" cy="11.526" r="11.526" transform="translate(0 0)"/><path class="l" d="M20.711,8.133l-5.123,5.123,5.123,5.123-1.733,1.733-5.123-5.123L8.733,20.111,7,18.378l5.123-5.123L7,8.133,8.733,6.4l5.123,5.123L18.978,6.4Z" transform="translate(-2.179 -1.654)"/></g></g></g></g></svg>